<svg xmlns="http://www.w3.org/2000/svg" xmlns:xlink="http://www.w3.org/1999/xlink" width="749" height="94" viewBox="0 0 749 94">
  <defs>
    <clipPath id="clip-long-logo-red">
      <rect width="749" height="94"/>
    </clipPath>
  </defs>
  <g id="long-logo-red" clip-path="url(#clip-long-logo-red)">
    <g id="Layer_2" data-name="Layer 2">
      <g id="Layer_1" data-name="Layer 1">
        <rect id="Rectangle_1" data-name="Rectangle 1" width="25.405" height="47.19" transform="translate(177.439 47.19)" fill="#fb3640"/>
        <path id="Path_21" data-name="Path 21" d="M30.3,47.19V57.438q1.362,36.907,41.923,36.907h39.415V74.136H73.047a17.128,17.128,0,0,1-12.541-4.049,18.6,18.6,0,0,1-4.3-12.756c-.179-2.616-.287-5.984-.287-10.1a98.046,98.046,0,0,1,.287-9.961,17.486,17.486,0,0,1,4.658-12.756,17.916,17.916,0,0,1,12.864-4.121h38.125V0H73.047C59.754,0,49.4,3.153,42.053,9.5A35.545,35.545,0,0,0,30.443,36.8C30.372,39.415,30.3,43,30.3,47.19Z" transform="translate(78.27)" fill="#fb3640"/>
        <rect id="Rectangle_2" data-name="Rectangle 2" width="25.405" height="47.19" transform="translate(25.405 47.19) rotate(180)" fill="#fb3640"/>
        <path id="Path_22" data-name="Path 22" d="M84.986,36.8c-.394-11.717-4.228-20.962-11.717-27.3S55.675,0,42.382,0H3.54V20.209H41.7A17.916,17.916,0,0,1,54.564,24.33a17.629,17.629,0,0,1,4.658,12.756c.179,2.508.287,5.8.287,9.961s0,7.489-.287,10.1a18.453,18.453,0,0,1-4.336,12.935,17.02,17.02,0,0,1-12.505,4.049H3.54V94.345H42.955q40.526,0,41.923-36.907V47.19C84.878,42.891,85.057,39.415,84.986,36.8Z" transform="translate(9.144)" fill="#fb3640"/>
        <path id="Path_23" data-name="Path 23" d="M68.087,64.511a2.078,2.078,0,0,1-.645-1.5V7.037a2.15,2.15,0,0,1,.609-1.612,1.971,1.971,0,0,1,1.4-.645H92.13a29.561,29.561,0,0,1,19.851,6.091,22.825,22.825,0,0,1,7.632,17.45V41.543q-.86,23.613-26.838,23.613H69.449a2.078,2.078,0,0,1-1.362-.645ZM92.273,52.293a10.965,10.965,0,0,0,8.026-2.58,11.86,11.86,0,0,0,2.759-8.17c0-1.684.179-3.834.179-6.486s0-4.766-.179-6.378a11.215,11.215,0,0,0-2.974-8.17,11.789,11.789,0,0,0-8.241-2.616H83.781v34.4Z" transform="translate(174.207 12.204)" fill="#fb3640"/>
        <path id="Path_24" data-name="Path 24" d="M86.465,64.473a2.078,2.078,0,0,1-.645-1.5V7a2.293,2.293,0,0,1,.645-1.612,2.042,2.042,0,0,1,1.577-.645h40.526a2.114,2.114,0,0,1,1.577.645A2.221,2.221,0,0,1,130.825,7v8.528a2.007,2.007,0,0,1-.681,1.541,2.222,2.222,0,0,1-1.577.609H101.3V28.641h25.369a2.257,2.257,0,0,1,1.612.645,2.15,2.15,0,0,1,.645,1.577V38.71a2.186,2.186,0,0,1-.645,1.612,2.257,2.257,0,0,1-1.612.645H101.3V52.254h27.949a2.222,2.222,0,0,1,2.257,2.257V63a1.971,1.971,0,0,1-.645,1.541,2.15,2.15,0,0,1-1.612.609H87.862A2.15,2.15,0,0,1,86.465,64.473Z" transform="translate(221.688 12.243)" fill="#fb3640"/>
        <path id="Path_25" data-name="Path 25" d="M103,64.473a2.078,2.078,0,0,1-.645-1.5V7a2.293,2.293,0,0,1,.609-1.612,1.971,1.971,0,0,1,1.541-.645h40.7A2.222,2.222,0,0,1,147.463,7v8.528a1.971,1.971,0,0,1-.645,1.541,2.293,2.293,0,0,1-1.612.609H117.973V28.641h25.369a2.186,2.186,0,0,1,2.222,2.222V38.71a2.186,2.186,0,0,1-.645,1.612,2.15,2.15,0,0,1-1.577.645H117.973V52.254h27.949a2.15,2.15,0,0,1,1.577.645,2.186,2.186,0,0,1,.645,1.612V63a1.971,1.971,0,0,1-.645,1.541,2.15,2.15,0,0,1-1.577.609H104.68A2.078,2.078,0,0,1,103,64.473Z" transform="translate(264.388 12.243)" fill="#fb3640"/>
        <path id="Path_26" data-name="Path 26" d="M119.566,64.506a2.078,2.078,0,0,1-.645-1.5V7.032a2.293,2.293,0,0,1,.573-1.612,2.114,2.114,0,0,1,1.577-.645h24.4a27.411,27.411,0,0,1,17.593,5.088,17.916,17.916,0,0,1,6.306,14.906A17.378,17.378,0,0,1,162.994,39.5,28.271,28.271,0,0,1,145.4,44.369h-9.818V63.037a2.186,2.186,0,0,1-.609,1.5,2.114,2.114,0,0,1-1.577.645H121A2.078,2.078,0,0,1,119.566,64.506Zm25.476-32.464a7.955,7.955,0,0,0,5.554-1.863,7.166,7.166,0,0,0,2.042-5.482,7.811,7.811,0,0,0-1.863-5.446,7.346,7.346,0,0,0-5.733-2.042h-9.675V32.042Z" transform="translate(307.19 12.21)" fill="#fb3640"/>
        <path id="Path_27" data-name="Path 27" d="M143.617,60.536a22.932,22.932,0,0,1-7.525-17.378q0-2.419,0-7.847V27.391a21.822,21.822,0,0,1,7.561-16.877,29.7,29.7,0,0,1,19.528-5.984,36.119,36.119,0,0,1,14.333,2.687,23,23,0,0,1,9.388,6.844,14.942,14.942,0,0,1,3.4,8.564,1.827,1.827,0,0,1-1.9,1.9H175.185a2.365,2.365,0,0,1-1.326-.287,3.583,3.583,0,0,1-.932-.9,10.212,10.212,0,0,0-3.3-4.156,10.75,10.75,0,0,0-6.45-1.72c-6.665,0-10.1,3.583-10.32,10.355V42.727c.215,7.166,3.583,10.965,10.5,10.965a11.824,11.824,0,0,0,7.955-2.508,9.46,9.46,0,0,0,2.938-7.6V42.154h-7.7a2.15,2.15,0,0,1-1.577-.645,2.186,2.186,0,0,1-.645-1.612V33.089a2.186,2.186,0,0,1,.645-1.612,2.15,2.15,0,0,1,1.577-.645h21.929a2.15,2.15,0,0,1,1.577.645,2.186,2.186,0,0,1,.645,1.612v10a22.789,22.789,0,0,1-3.583,12.649,21.821,21.821,0,0,1-9.6,8.1,35.187,35.187,0,0,1-14.333,2.795,28.952,28.952,0,0,1-19.564-6.091Z" transform="translate(351.542 11.593)" fill="#fb3640"/>
        <path id="Path_28" data-name="Path 28" d="M155.745,64.509A2.078,2.078,0,0,1,155.1,63V7.035a2.293,2.293,0,0,1,.609-1.612,2.042,2.042,0,0,1,1.577-.645h23.721a27.805,27.805,0,0,1,17.916,5.16,17.916,17.916,0,0,1,6.414,14.584A18.239,18.239,0,0,1,202.542,34.8a18.811,18.811,0,0,1-7.847,6.736L206.34,62.574a2.258,2.258,0,0,1,.287.967,1.864,1.864,0,0,1-.538,1.254,1.648,1.648,0,0,1-1.29.537H192.652A3.583,3.583,0,0,1,189.069,63l-9.5-18.7H171.3V63.04a1.971,1.971,0,0,1-.645,1.541,2.15,2.15,0,0,1-1.612.609H157.25a2.15,2.15,0,0,1-1.505-.681Zm25.082-33.073a7.811,7.811,0,0,0,5.661-1.863,6.736,6.736,0,0,0,1.935-5.124,7.166,7.166,0,0,0-1.935-5.267,7.56,7.56,0,0,0-5.661-1.971h-9.567V31.544Z" transform="translate(400.65 12.206)" fill="#fb3640"/>
        <path id="Path_29" data-name="Path 29" d="M172.7,64.592a1.863,1.863,0,0,1-.537-1.254,2.331,2.331,0,0,1,0-.788l20.1-55.288a3.332,3.332,0,0,1,3.583-2.508h13.473A3.332,3.332,0,0,1,212.9,7.262l20.1,55.288a2.188,2.188,0,0,1,0,.788,1.9,1.9,0,0,1-.573,1.254,1.792,1.792,0,0,1-1.254.537H219.964a2.938,2.938,0,0,1-2.938-1.9l-3.117-8.349H191.334l-3.117,8.349a2.938,2.938,0,0,1-2.938,1.9H174.063A1.791,1.791,0,0,1,172.7,64.592Zm22.144-22.646h15.336l-7.668-21.929Z" transform="translate(444.644 12.231)" fill="#fb3640"/>
        <path id="Path_30" data-name="Path 30" d="M192.836,64.51a1.97,1.97,0,0,1-.645-1.541V7a2.222,2.222,0,0,1,2.257-2.257h9.746a3.261,3.261,0,0,1,3.117,1.9l14.834,26.551L237.053,6.642a3.261,3.261,0,0,1,3.117-1.9h9.746a2.114,2.114,0,0,1,1.577.645A2.186,2.186,0,0,1,252.138,7V63a1.971,1.971,0,0,1-.645,1.541,2.078,2.078,0,0,1-1.577.609H238.952A2.222,2.222,0,0,1,236.8,63V31.581l-9.46,17.092a3.583,3.583,0,0,1-3.01,2.007h-4.658a3.583,3.583,0,0,1-3.046-2.007L207.42,31.616V63a1.971,1.971,0,0,1-.645,1.541,2.15,2.15,0,0,1-1.612.609h-10.75A2.15,2.15,0,0,1,192.836,64.51Z" transform="translate(496.46 12.242)" fill="#fb3640"/>
      </g>
    </g>
  </g>
</svg>
